<mxfile host="app.diagrams.net" modified="2021-06-29T09:56:32.414Z" agent="5.0 (Windows NT 6.1; Win64; x64) AppleWebKit/537.36 (KHTML, like Gecko) Chrome/91.0.4472.124 Safari/537.36" etag="fChnlp__7F8OxX74sdpG" version="14.8.1" type="github">
  <diagram id="t-GLDYwW0JA3R3wD6FrM" name="Page-1">
    <mxGraphModel dx="1237" dy="663" grid="1" gridSize="10" guides="1" tooltips="1" connect="1" arrows="1" fold="1" page="1" pageScale="1" pageWidth="827" pageHeight="1169" math="0" shadow="0">
      <root>
        <mxCell id="0" />
        <mxCell id="1" parent="0" />
        <mxCell id="5kngIsEmxCErW-KxKxi0-3" value="&lt;span&gt;你认为一条数据应该怎么组织&lt;/span&gt;" style="rounded=0;whiteSpace=wrap;html=1;" vertex="1" parent="1">
          <mxGeometry x="280" y="40" width="240" height="40" as="geometry" />
        </mxCell>
        <mxCell id="5kngIsEmxCErW-KxKxi0-5" value="&lt;div&gt;下面为建表语句和插入数据&lt;/div&gt;&lt;div&gt;CREATE TABLE `record_format_demo` (&lt;/div&gt;&lt;div&gt;&amp;nbsp; `c1` varchar(10) DEFAULT NULL,&lt;/div&gt;&lt;div&gt;&amp;nbsp; `c2` varchar(10) NOT NULL,&lt;/div&gt;&lt;div&gt;&amp;nbsp; `c3` char(10) DEFAULT NULL,&lt;/div&gt;&lt;div&gt;&amp;nbsp; `c4` varchar(10) DEFAULT NULL&lt;/div&gt;&lt;div&gt;) ENGINE=InnoDB DEFAULT CHARSET=ascii ROW_FORMAT=COMPACT;&lt;/div&gt;&lt;div&gt;&lt;br&gt;&lt;/div&gt;&lt;div&gt;insert into record_format_demo(c1,c2,c3,c4) values(&#39;aaaa&#39;,&#39;bbb&#39;,&#39;cc&#39;,&#39;d&#39;),(&#39;eeee&#39;,&#39;fff&#39;,null,null);&lt;br&gt;&lt;/div&gt;" style="text;html=1;strokeColor=#6c8ebf;fillColor=#dae8fc;align=left;verticalAlign=middle;whiteSpace=wrap;rounded=0;" vertex="1" parent="1">
          <mxGeometry y="120" width="500" height="160" as="geometry" />
        </mxCell>
        <mxCell id="5kngIsEmxCErW-KxKxi0-18" value="方式1" style="swimlane;childLayout=stackLayout;resizeParent=1;resizeParentMax=0;startSize=20;" vertex="1" parent="1">
          <mxGeometry y="320" width="480" height="80" as="geometry">
            <mxRectangle y="320" width="60" height="20" as="alternateBounds" />
          </mxGeometry>
        </mxCell>
        <mxCell id="5kngIsEmxCErW-KxKxi0-19" value="C1" style="swimlane;startSize=20;" vertex="1" parent="5kngIsEmxCErW-KxKxi0-18">
          <mxGeometry y="20" width="120" height="60" as="geometry">
            <mxRectangle y="20" width="30" height="60" as="alternateBounds" />
          </mxGeometry>
        </mxCell>
        <mxCell id="5kngIsEmxCErW-KxKxi0-20" value="C2" style="swimlane;startSize=20;" vertex="1" parent="5kngIsEmxCErW-KxKxi0-18">
          <mxGeometry x="120" y="20" width="120" height="60" as="geometry">
            <mxRectangle x="120" y="20" width="30" height="60" as="alternateBounds" />
          </mxGeometry>
        </mxCell>
        <mxCell id="5kngIsEmxCErW-KxKxi0-24" value="bbb" style="text;html=1;align=center;verticalAlign=middle;resizable=0;points=[];autosize=1;strokeColor=none;" vertex="1" parent="5kngIsEmxCErW-KxKxi0-20">
          <mxGeometry x="30" y="30" width="40" height="20" as="geometry" />
        </mxCell>
        <mxCell id="5kngIsEmxCErW-KxKxi0-21" value="C3" style="swimlane;startSize=20;" vertex="1" parent="5kngIsEmxCErW-KxKxi0-18">
          <mxGeometry x="240" y="20" width="120" height="60" as="geometry">
            <mxRectangle x="240" y="20" width="30" height="60" as="alternateBounds" />
          </mxGeometry>
        </mxCell>
        <mxCell id="5kngIsEmxCErW-KxKxi0-22" value="C4" style="swimlane;startSize=20;" vertex="1" parent="5kngIsEmxCErW-KxKxi0-18">
          <mxGeometry x="360" y="20" width="120" height="60" as="geometry">
            <mxRectangle x="360" y="20" width="30" height="60" as="alternateBounds" />
          </mxGeometry>
        </mxCell>
        <mxCell id="5kngIsEmxCErW-KxKxi0-23" value="aaaa" style="text;html=1;align=center;verticalAlign=middle;resizable=0;points=[];autosize=1;strokeColor=none;" vertex="1" parent="1">
          <mxGeometry x="30" y="370" width="40" height="20" as="geometry" />
        </mxCell>
        <mxCell id="5kngIsEmxCErW-KxKxi0-25" value="ccc" style="text;html=1;align=center;verticalAlign=middle;resizable=0;points=[];autosize=1;strokeColor=none;" vertex="1" parent="1">
          <mxGeometry x="265" y="370" width="30" height="20" as="geometry" />
        </mxCell>
        <mxCell id="5kngIsEmxCErW-KxKxi0-26" value="d" style="text;html=1;align=center;verticalAlign=middle;resizable=0;points=[];autosize=1;strokeColor=none;" vertex="1" parent="1">
          <mxGeometry x="410" y="370" width="20" height="20" as="geometry" />
        </mxCell>
        <mxCell id="5kngIsEmxCErW-KxKxi0-78" value="C1" style="swimlane;startSize=20;" vertex="1" parent="1">
          <mxGeometry y="400" width="120" height="60" as="geometry">
            <mxRectangle y="400" width="30" height="60" as="alternateBounds" />
          </mxGeometry>
        </mxCell>
        <mxCell id="5kngIsEmxCErW-KxKxi0-79" value="C2" style="swimlane;startSize=20;" vertex="1" parent="1">
          <mxGeometry x="120" y="400" width="120" height="60" as="geometry">
            <mxRectangle x="120" y="20" width="30" height="60" as="alternateBounds" />
          </mxGeometry>
        </mxCell>
        <mxCell id="5kngIsEmxCErW-KxKxi0-80" value="fff" style="text;html=1;align=center;verticalAlign=middle;resizable=0;points=[];autosize=1;strokeColor=none;" vertex="1" parent="5kngIsEmxCErW-KxKxi0-79">
          <mxGeometry x="35" y="30" width="30" height="20" as="geometry" />
        </mxCell>
        <mxCell id="5kngIsEmxCErW-KxKxi0-81" value="C3" style="swimlane;startSize=20;" vertex="1" parent="1">
          <mxGeometry x="240" y="400" width="120" height="60" as="geometry">
            <mxRectangle x="240" y="20" width="30" height="60" as="alternateBounds" />
          </mxGeometry>
        </mxCell>
        <mxCell id="5kngIsEmxCErW-KxKxi0-82" value="C4" style="swimlane;startSize=20;" vertex="1" parent="1">
          <mxGeometry x="360" y="400" width="120" height="60" as="geometry">
            <mxRectangle x="360" y="20" width="30" height="60" as="alternateBounds" />
          </mxGeometry>
        </mxCell>
        <mxCell id="5kngIsEmxCErW-KxKxi0-83" value="eeee" style="text;html=1;align=center;verticalAlign=middle;resizable=0;points=[];autosize=1;strokeColor=none;" vertex="1" parent="1">
          <mxGeometry x="30" y="430" width="40" height="20" as="geometry" />
        </mxCell>
        <mxCell id="5kngIsEmxCErW-KxKxi0-87" value="优点：按照用户输入的展示，不管字符类型和非NULL判断，直接存储&lt;br&gt;缺点：大量的磁盘空间浪费" style="text;html=1;strokeColor=none;fillColor=none;align=left;verticalAlign=middle;whiteSpace=wrap;rounded=0;" vertex="1" parent="1">
          <mxGeometry x="617" y="330" width="210" height="140" as="geometry" />
        </mxCell>
        <mxCell id="5kngIsEmxCErW-KxKxi0-88" value="方式2" style="swimlane;childLayout=stackLayout;resizeParent=1;resizeParentMax=0;startSize=20;" vertex="1" parent="1">
          <mxGeometry y="520" width="600" height="80" as="geometry">
            <mxRectangle y="320" width="60" height="20" as="alternateBounds" />
          </mxGeometry>
        </mxCell>
        <mxCell id="5kngIsEmxCErW-KxKxi0-89" value="NULL列表" style="swimlane;startSize=20;" vertex="1" parent="5kngIsEmxCErW-KxKxi0-88">
          <mxGeometry y="20" width="120" height="60" as="geometry">
            <mxRectangle y="20" width="30" height="60" as="alternateBounds" />
          </mxGeometry>
        </mxCell>
        <mxCell id="5kngIsEmxCErW-KxKxi0-90" value="C1" style="swimlane;startSize=20;" vertex="1" parent="5kngIsEmxCErW-KxKxi0-88">
          <mxGeometry x="120" y="20" width="120" height="60" as="geometry">
            <mxRectangle x="120" y="20" width="30" height="60" as="alternateBounds" />
          </mxGeometry>
        </mxCell>
        <mxCell id="5kngIsEmxCErW-KxKxi0-91" value="aaaa" style="text;html=1;align=center;verticalAlign=middle;resizable=0;points=[];autosize=1;strokeColor=none;" vertex="1" parent="5kngIsEmxCErW-KxKxi0-90">
          <mxGeometry x="30" y="30" width="40" height="20" as="geometry" />
        </mxCell>
        <mxCell id="5kngIsEmxCErW-KxKxi0-92" value="C2" style="swimlane;startSize=20;" vertex="1" parent="5kngIsEmxCErW-KxKxi0-88">
          <mxGeometry x="240" y="20" width="120" height="60" as="geometry">
            <mxRectangle x="240" y="20" width="30" height="60" as="alternateBounds" />
          </mxGeometry>
        </mxCell>
        <mxCell id="5kngIsEmxCErW-KxKxi0-93" value="C3" style="swimlane;startSize=20;" vertex="1" parent="5kngIsEmxCErW-KxKxi0-88">
          <mxGeometry x="360" y="20" width="120" height="60" as="geometry">
            <mxRectangle x="360" y="20" width="30" height="60" as="alternateBounds" />
          </mxGeometry>
        </mxCell>
        <mxCell id="5kngIsEmxCErW-KxKxi0-104" value="C4" style="swimlane;startSize=20;" vertex="1" parent="5kngIsEmxCErW-KxKxi0-88">
          <mxGeometry x="480" y="20" width="120" height="60" as="geometry">
            <mxRectangle x="360" y="20" width="30" height="60" as="alternateBounds" />
          </mxGeometry>
        </mxCell>
        <mxCell id="5kngIsEmxCErW-KxKxi0-94" value="000" style="text;html=1;align=center;verticalAlign=middle;resizable=0;points=[];autosize=1;strokeColor=none;" vertex="1" parent="1">
          <mxGeometry x="30" y="570" width="40" height="20" as="geometry" />
        </mxCell>
        <mxCell id="5kngIsEmxCErW-KxKxi0-95" value="bbb" style="text;html=1;align=center;verticalAlign=middle;resizable=0;points=[];autosize=1;strokeColor=none;" vertex="1" parent="1">
          <mxGeometry x="260" y="570" width="40" height="20" as="geometry" />
        </mxCell>
        <mxCell id="5kngIsEmxCErW-KxKxi0-96" value="ccc" style="text;html=1;align=center;verticalAlign=middle;resizable=0;points=[];autosize=1;strokeColor=none;" vertex="1" parent="1">
          <mxGeometry x="405" y="570" width="30" height="20" as="geometry" />
        </mxCell>
        <mxCell id="5kngIsEmxCErW-KxKxi0-112" value="d" style="text;html=1;align=center;verticalAlign=middle;resizable=0;points=[];autosize=1;strokeColor=none;" vertex="1" parent="1">
          <mxGeometry x="530" y="570" width="20" height="20" as="geometry" />
        </mxCell>
        <mxCell id="5kngIsEmxCErW-KxKxi0-113" value="NULL列表" style="swimlane;startSize=20;" vertex="1" parent="1">
          <mxGeometry y="600" width="120" height="60" as="geometry">
            <mxRectangle y="20" width="30" height="60" as="alternateBounds" />
          </mxGeometry>
        </mxCell>
        <mxCell id="5kngIsEmxCErW-KxKxi0-114" value="C1" style="swimlane;startSize=20;" vertex="1" parent="1">
          <mxGeometry x="120" y="600" width="120" height="60" as="geometry">
            <mxRectangle x="120" y="20" width="30" height="60" as="alternateBounds" />
          </mxGeometry>
        </mxCell>
        <mxCell id="5kngIsEmxCErW-KxKxi0-115" value="eeee" style="text;html=1;align=center;verticalAlign=middle;resizable=0;points=[];autosize=1;strokeColor=none;" vertex="1" parent="5kngIsEmxCErW-KxKxi0-114">
          <mxGeometry x="30" y="30" width="40" height="20" as="geometry" />
        </mxCell>
        <mxCell id="5kngIsEmxCErW-KxKxi0-116" value="C2" style="swimlane;startSize=20;" vertex="1" parent="1">
          <mxGeometry x="240" y="600" width="120" height="60" as="geometry">
            <mxRectangle x="240" y="20" width="30" height="60" as="alternateBounds" />
          </mxGeometry>
        </mxCell>
        <mxCell id="5kngIsEmxCErW-KxKxi0-119" value="110" style="text;html=1;align=center;verticalAlign=middle;resizable=0;points=[];autosize=1;strokeColor=none;" vertex="1" parent="1">
          <mxGeometry x="35" y="630" width="30" height="20" as="geometry" />
        </mxCell>
        <mxCell id="5kngIsEmxCErW-KxKxi0-120" value="fff" style="text;html=1;align=center;verticalAlign=middle;resizable=0;points=[];autosize=1;strokeColor=none;" vertex="1" parent="1">
          <mxGeometry x="265" y="630" width="30" height="20" as="geometry" />
        </mxCell>
        <mxCell id="5kngIsEmxCErW-KxKxi0-123" value="将空值字段单独放到前面的NULL列表，节省部分空间。在反转的时候需要读取表结构为空的字段这里的C1、C3、C4是属于可空的。" style="text;html=1;strokeColor=none;fillColor=none;align=left;verticalAlign=middle;whiteSpace=wrap;rounded=0;" vertex="1" parent="1">
          <mxGeometry x="617" y="510" width="210" height="140" as="geometry" />
        </mxCell>
        <mxCell id="5kngIsEmxCErW-KxKxi0-206" value="方式3" style="swimlane;childLayout=stackLayout;resizeParent=1;resizeParentMax=0;startSize=20;" vertex="1" parent="1">
          <mxGeometry y="730" width="360" height="80" as="geometry">
            <mxRectangle y="320" width="60" height="20" as="alternateBounds" />
          </mxGeometry>
        </mxCell>
        <mxCell id="5kngIsEmxCErW-KxKxi0-207" value="可变长度列表" style="swimlane;startSize=20;" vertex="1" parent="5kngIsEmxCErW-KxKxi0-206">
          <mxGeometry y="20" width="120" height="60" as="geometry">
            <mxRectangle y="20" width="30" height="60" as="alternateBounds" />
          </mxGeometry>
        </mxCell>
        <mxCell id="5kngIsEmxCErW-KxKxi0-208" value="NULL列表" style="swimlane;startSize=20;" vertex="1" parent="5kngIsEmxCErW-KxKxi0-206">
          <mxGeometry x="120" y="20" width="120" height="60" as="geometry">
            <mxRectangle x="120" y="20" width="30" height="60" as="alternateBounds" />
          </mxGeometry>
        </mxCell>
        <mxCell id="5kngIsEmxCErW-KxKxi0-209" value="000" style="text;html=1;align=center;verticalAlign=middle;resizable=0;points=[];autosize=1;strokeColor=none;" vertex="1" parent="5kngIsEmxCErW-KxKxi0-208">
          <mxGeometry x="30" y="30" width="40" height="20" as="geometry" />
        </mxCell>
        <mxCell id="5kngIsEmxCErW-KxKxi0-210" value="C" style="swimlane;startSize=20;" vertex="1" parent="5kngIsEmxCErW-KxKxi0-206">
          <mxGeometry x="240" y="20" width="120" height="60" as="geometry">
            <mxRectangle x="240" y="20" width="30" height="60" as="alternateBounds" />
          </mxGeometry>
        </mxCell>
        <mxCell id="5kngIsEmxCErW-KxKxi0-214" value="aaaabbbccd" style="text;html=1;align=center;verticalAlign=middle;resizable=0;points=[];autosize=1;strokeColor=none;" vertex="1" parent="5kngIsEmxCErW-KxKxi0-210">
          <mxGeometry x="25" y="30" width="80" height="20" as="geometry" />
        </mxCell>
        <mxCell id="5kngIsEmxCErW-KxKxi0-213" value="134" style="text;html=1;align=center;verticalAlign=middle;resizable=0;points=[];autosize=1;strokeColor=none;" vertex="1" parent="1">
          <mxGeometry x="30" y="780" width="40" height="20" as="geometry" />
        </mxCell>
        <mxCell id="5kngIsEmxCErW-KxKxi0-217" value="可变长度列表" style="swimlane;startSize=20;" vertex="1" parent="1">
          <mxGeometry y="810" width="120" height="60" as="geometry">
            <mxRectangle y="20" width="30" height="60" as="alternateBounds" />
          </mxGeometry>
        </mxCell>
        <mxCell id="5kngIsEmxCErW-KxKxi0-218" value="NULL列表" style="swimlane;startSize=20;" vertex="1" parent="1">
          <mxGeometry x="120" y="810" width="120" height="60" as="geometry">
            <mxRectangle x="120" y="20" width="30" height="60" as="alternateBounds" />
          </mxGeometry>
        </mxCell>
        <mxCell id="5kngIsEmxCErW-KxKxi0-219" value="100" style="text;html=1;align=center;verticalAlign=middle;resizable=0;points=[];autosize=1;strokeColor=none;" vertex="1" parent="5kngIsEmxCErW-KxKxi0-218">
          <mxGeometry x="30" y="30" width="40" height="20" as="geometry" />
        </mxCell>
        <mxCell id="5kngIsEmxCErW-KxKxi0-220" value="C" style="swimlane;startSize=20;" vertex="1" parent="1">
          <mxGeometry x="240" y="810" width="120" height="60" as="geometry">
            <mxRectangle x="240" y="20" width="30" height="60" as="alternateBounds" />
          </mxGeometry>
        </mxCell>
        <mxCell id="5kngIsEmxCErW-KxKxi0-222" value="eeeefff" style="text;html=1;align=center;verticalAlign=middle;resizable=0;points=[];autosize=1;strokeColor=none;" vertex="1" parent="5kngIsEmxCErW-KxKxi0-220">
          <mxGeometry x="35" y="30" width="50" height="20" as="geometry" />
        </mxCell>
        <mxCell id="5kngIsEmxCErW-KxKxi0-221" value="34" style="text;html=1;align=center;verticalAlign=middle;resizable=0;points=[];autosize=1;strokeColor=none;" vertex="1" parent="1">
          <mxGeometry x="35" y="840" width="30" height="20" as="geometry" />
        </mxCell>
        <mxCell id="5kngIsEmxCErW-KxKxi0-223" value="在方式2的基础上，直接将数据放到一起，无需分隔符，那么如何判断哪些字符属于哪个字段，通过可变长度列表和NULL就可以判断出来了，进一步节省空间" style="text;html=1;strokeColor=none;fillColor=none;align=left;verticalAlign=middle;whiteSpace=wrap;rounded=0;" vertex="1" parent="1">
          <mxGeometry x="600" y="710" width="210" height="140" as="geometry" />
        </mxCell>
      </root>
    </mxGraphModel>
  </diagram>
</mxfile>
